<svg height="480pt" viewBox="0 0 480 480" width="480pt" xmlns="http://www.w3.org/2000/svg"><path d="m304 440h-128v-32h-147.503906c-4.929688 0-9.582032 2.265625-12.613282 6.152344-3.035156 3.882812-4.109374 8.945312-2.914062 13.726562l8 32c1.78125 7.125 8.183594 12.125 15.527344 12.121094h407.007812c7.34375.003906 13.746094-4.996094 15.527344-12.121094l8-32c1.195312-4.78125.121094-9.84375-2.914062-13.726562-3.03125-3.886719-7.683594-6.152344-12.613282-6.152344h-147.503906zm0 0" fill="#9bc9ff"/><path d="m456 8h-432c-8.835938 0-16 7.164062-16 16v336c0 8.835938 7.164062 16 16 16h432c8.835938 0 16-7.164062 16-16v-336c0-8.835938-7.164062-16-16-16zm-8 72v259.3125c0 7.007812-5.679688 12.6875-12.6875 12.6875h-390.625c-7.007812 0-12.6875-5.679688-12.6875-12.6875v-294.625c0-7.007812 5.679688-12.6875 12.6875-12.6875h390.625c7.007812 0 12.6875 5.679688 12.6875 12.6875zm0 0" fill="#9bc9ff"/><path d="m56 408h368v-32h-368zm0 0" fill="#9bc9ff"/><path d="m224 168h32c8.835938 0 16 7.164062 16 16v64c0 8.835938-7.164062 16-16 16h-32c-8.835938 0-16-7.164062-16-16v-64c0-8.835938 7.164062-16 16-16zm0 0" fill="#9bc9ff"/><g fill="#57a4ff"><path d="m456 384c13.253906 0 24-10.746094 24-24v-336c0-13.253906-10.746094-24-24-24h-432c-13.253906 0-24 10.746094-24 24v336c0 13.253906 10.746094 24 24 24h24v16h-19.503906c-7.390625 0-14.371094 3.402344-18.921875 9.230469-4.550781 5.824219-6.160157 13.421875-4.367188 20.59375l8 32c2.671875 10.683593 12.273438 18.179687 23.289063 18.175781h407.007812c11.015625.003906 20.617188-7.492188 23.289063-18.175781l8-32c1.792969-7.171875.183593-14.769531-4.367188-20.59375-4.550781-5.828125-11.53125-9.230469-18.921875-9.230469h-19.503906v-16zm-440-24v-336c0-4.417969 3.582031-8 8-8h432c4.417969 0 8 3.582031 8 8v336c0 4.417969-3.582031 8-8 8h-432c-4.417969 0-8-3.582031-8-8zm441.816406 59.078125c1.523438 1.9375 2.058594 4.46875 1.457032 6.859375l-8 32c-.890626 3.5625-4.09375 6.066406-7.769532 6.0625h-407.007812c-3.675782.003906-6.878906-2.5-7.769532-6.0625l-8-32c-.59375-2.390625-.054687-4.925781 1.460938-6.863281 1.519531-1.941407 3.84375-3.074219 6.308594-3.074219h139.503906v24c0 4.417969 3.582031 8 8 8h128c4.417969 0 8-3.582031 8-8v-24h139.503906c2.46875-.007812 4.800782 1.128906 6.3125 3.078125zm-273.816406-3.078125h112v16h-112zm232-16h-352v-16h352zm0 0"/><path d="m456 339.3125v-294.625c-.011719-11.417969-9.269531-20.675781-20.6875-20.6875h-390.625c-11.417969.011719-20.675781 9.269531-20.6875 20.6875v294.625c.011719 11.417969 9.269531 20.675781 20.6875 20.6875h390.625c11.417969-.011719 20.675781-9.269531 20.6875-20.6875zm-411.3125-299.3125h390.625c2.585938.003906 4.683594 2.101562 4.6875 4.6875v27.3125h-400v-27.3125c.003906-2.585938 2.101562-4.683594 4.6875-4.6875zm-4.6875 299.3125v-251.3125h400v251.3125c-.003906 2.585938-2.101562 4.683594-4.6875 4.6875h-390.625c-2.585938-.003906-4.683594-2.101562-4.6875-4.6875zm0 0"/><path d="m56 48h16v16h-16zm0 0"/><path d="m80 48h16v16h-16zm0 0"/><path d="m104 48h16v16h-16zm0 0"/><path d="m408 48h16v16h-16zm0 0"/><path d="m256 160h-32c-13.253906 0-24 10.746094-24 24v64c0 13.253906 10.746094 24 24 24h32c13.253906 0 24-10.746094 24-24v-64c0-13.253906-10.746094-24-24-24zm8 88c0 4.417969-3.582031 8-8 8h-32c-4.417969 0-8-3.582031-8-8v-64c0-4.417969 3.582031-8 8-8h32c4.417969 0 8 3.582031 8 8zm0 0"/><path d="m176 224h-8v-56c0-4.417969-3.582031-8-8-8s-8 3.582031-8 8v56h-40c-4.417969 0-8-3.582031-8-8v-48c0-4.417969-3.582031-8-8-8s-8 3.582031-8 8v48c0 13.253906 10.746094 24 24 24h40v24c0 4.417969 3.582031 8 8 8s8-3.582031 8-8v-24h8c4.417969 0 8-3.582031 8-8s-3.582031-8-8-8zm0 0"/><path d="m384 224h-8v-56c0-4.417969-3.582031-8-8-8s-8 3.582031-8 8v56h-40c-4.417969 0-8-3.582031-8-8v-48c0-4.417969-3.582031-8-8-8s-8 3.582031-8 8v48c0 13.253906 10.746094 24 24 24h40v24c0 4.417969 3.582031 8 8 8s8-3.582031 8-8v-24h8c4.417969 0 8-3.582031 8-8s-3.582031-8-8-8zm0 0"/></g></svg>